<svg width="461.766" height="461.766" xmlns="http://www.w3.org/2000/svg" xmlns:svg="http://www.w3.org/2000/svg">
 <g class="layer">
  <title>Layer 1</title>
  <g id="svg_1">
   <g id="svg_2">
    <path fill="#ffffff" id="svg_3" d="m361.816,219.457c-0.192,-0.005 -0.385,-0.009 -0.577,-0.011l0,0c-8.462,0.078 -16.613,3.202 -22.96,8.8c-4.633,-15.3 -18.577,-25.888 -34.56,-26.24c-7.951,0.12 -15.625,2.942 -21.76,8c-3.147,-17.272 -17.895,-30.022 -35.44,-30.64c-7.49,0.017 -14.778,2.427 -20.8,6.88l0,-19.36c43.557,-21.561 61.387,-74.35 39.826,-117.906c-21.561,-43.557 -74.35,-61.387 -117.906,-39.826c-43.557,21.561 -61.387,74.35 -39.826,117.906c8.554,17.28 22.546,31.272 39.826,39.826l0,84.56l-18.24,-24.56c-12.636,-16.686 -36.386,-20.013 -53.12,-7.44c-15.641,13.392 -17.77,36.806 -4.8,52.8l70.48,138.56c22.16,43.6 57.52,49.68 72,50.24c12.48,0.56 25.28,0.72 37.52,0.72c38.56,0 72,-2 72,-2l0.8,0c57.84,0 74,-62.16 74.48,-95.28l0,-106c0.576,-20.979 -15.964,-38.453 -36.943,-39.029zm-214.497,-109.623c0,0.004 0,0.008 0,0.011l0,38.24c-20.41,-13.248 -32.748,-35.908 -32.8,-60.24c-0.198,-39.764 31.876,-72.16 71.64,-72.358c39.764,-0.198 72.16,31.876 72.358,71.64c0.123,24.649 -12.372,47.648 -33.118,60.959l0,-38.24c0.003,-21.561 -17.473,-39.043 -39.034,-39.046c-21.562,-0.003 -39.043,17.473 -39.046,39.034zm174.88,333.932c-0.56,0 -57.04,3.52 -108,1.28c-11.36,-0.48 -40,-5.52 -58.08,-41.52l-70.72,-139.28c-0.247,-0.482 -0.541,-0.938 -0.88,-1.36c-7.962,-9.114 -7.068,-22.947 2,-30.96c9.721,-6.996 23.258,-4.894 30.4,4.72l32,44.08l0.48,0.4c0.704,0.752 1.512,1.399 2.4,1.92l1.36,0.48l1.6,0l0.56,0l0.88,0l1.6,0l1.44,-0.64l0.8,0l0.4,-0.4c0.418,-0.356 0.794,-0.759 1.12,-1.2c0.305,-0.373 0.573,-0.775 0.8,-1.2c0.201,-0.438 0.361,-0.893 0.48,-1.36c0.053,-0.532 0.053,-1.068 0,-1.6c0,0 0,0 0,-0.56l0,-166.72c0,-12.725 10.315,-23.04 23.04,-23.04c12.725,0 23.04,10.315 23.04,23.04l0,141.6c0,4.418 3.582,8 8,8s8,-3.582 8,-8l0,-33.04c-1.235,-11.465 7.059,-21.761 18.525,-22.995c11.465,-1.235 21.761,7.059 22.995,18.525c0.16,1.486 0.16,2.985 0,4.471l0,57.52c0,4.418 3.582,8 8,8s8,-3.582 8,-8l0,-34.88c-1.235,-11.465 7.059,-21.761 18.525,-22.995c11.465,-1.235 21.761,7.059 22.995,18.525c0.16,1.486 0.16,2.985 0,4.471l0,64c0,4.418 3.582,8 8,8s8,-3.582 8,-8l0,-46.56c-1.235,-11.465 7.059,-21.761 18.525,-22.995c11.465,-1.235 21.761,7.059 22.995,18.525c0.16,1.486 0.16,2.985 0,4.471l0.48,105.84c0,3.277 -1.92,79.997 -59.76,79.437z"/>
   </g>
  </g>
  <g id="svg_4"/>
  <g id="svg_5"/>
  <g id="svg_6"/>
  <g id="svg_7"/>
  <g id="svg_8"/>
  <g id="svg_9"/>
  <g id="svg_10"/>
  <g id="svg_11"/>
  <g id="svg_12"/>
  <g id="svg_13"/>
  <g id="svg_14"/>
  <g id="svg_15"/>
  <g id="svg_16"/>
  <g id="svg_17"/>
  <g id="svg_18"/>
 </g>
</svg>